<svg data-v-0dd9719b="" version="1.0" xmlns="http://www.w3.org/2000/svg" xmlns:xlink="http://www.w3.org/1999/xlink" width="100%" height="100%" viewBox="0 0 340.000000 250.000000" preserveAspectRatio="xMidYMid meet" color-interpolation-filters="sRGB" style="margin: auto;"> <rect data-v-0dd9719b="" x="0" y="0" width="100%" height="100%" fill="#fff" fill-opacity="1" class="background"></rect> <rect data-v-0dd9719b="" x="0" y="0" width="100%" height="100%" fill="url(#watermark)" fill-opacity="1" class="watermarklayer"></rect> <g data-v-0dd9719b="" fill="#25bcbd" class="icon-text-wrapper icon-svg-group iconsvg" transform="translate(47.605003356933594,94.87861061096191)"><g class="iconsvg-imagesvg" transform="translate(0,0)"><g><rect fill="#25bcbd" fill-opacity="0" stroke-width="2" x="0" y="0" width="60" height="60.24277839693966" class="image-rect"></rect> <svg x="0" y="0" width="60" height="60.24277839693966" filtersec="colorsb2991061372" class="image-svg-svg primary" style="overflow: visible;"><svg xmlns="http://www.w3.org/2000/svg" viewBox="0 8.699999809265137 618.0999755859375 620.5999755859375"><path d="M136.5 183.6H149c1.7 0 3-1.4 3-3v-12.5c0-1.7-1.4-3-3-3h-12.5c-1.7 0-3 1.4-3 3v12.5c-.1 1.7 1.3 3 3 3zM112.9 280.3v14.8c0 2 1.6 3.6 3.6 3.6h14.8c2 0 3.6-1.6 3.6-3.6v-14.8c0-2-1.6-3.6-3.6-3.6h-14.8c-2 0-3.6 1.6-3.6 3.6zM36.1 305.8v-24.3c0-3.2-2.6-5.9-5.9-5.9H5.9c-3.2 0-5.9 2.6-5.9 5.9v24.3c0 3.2 2.6 5.9 5.9 5.9h24.3c3.2 0 5.9-2.7 5.9-5.9zM42.6 260.9h58.5c7.8 0 14.2-6.4 14.2-14.2v-58.5c0-7.8-6.4-14.2-14.2-14.2H42.6c-7.8 0-14.2 6.4-14.2 14.2v58.5c0 7.8 6.4 14.2 14.2 14.2zM154.2 148.9h65.5c8.7 0 15.9-7.1 15.9-15.9V67.6c0-8.7-7.1-15.9-15.9-15.9h-65.5c-8.7 0-15.9 7.1-15.9 15.9v65.5c.1 8.7 7.2 15.8 15.9 15.8zM478.5 160h83.7c4.9 0 9.5.9 13.8 2.6-13.5-23.1-29.9-44.3-48.7-63.1C471.2 43.4 393.6 8.7 307.9 8.7V123.8c53.5 0 102 21.5 137.2 56.4 6.4-12 19-20.2 33.4-20.2zM261.7 118.2c-2.3 0-4.1 1.8-4.1 4.1v16.9c0 2.3 1.8 4.1 4.1 4.1h16.9c2.3 0 4.1-1.8 4.1-4.1v-16.9c0-2.3-1.8-4.1-4.1-4.1h-16.9zM77.5 153h26.1c3.5 0 6.3-2.8 6.3-6.3v-26.1c0-3.5-2.8-6.3-6.3-6.3H77.5c-3.5 0-6.3 2.8-6.3 6.3v26.1c0 3.4 2.9 6.3 6.3 6.3zM282.1 530.8h-13.2c-1.8 0-3.2 1.4-3.2 3.2v13.2c0 1.8 1.4 3.2 3.2 3.2h13.2c1.8 0 3.2-1.4 3.2-3.2V534c0-1.8-1.5-3.2-3.2-3.2zM599.8 281.4c0 20.7-16.9 37.7-37.7 37.7H503c0 107.8-87.4 195.1-195.2 195.1V629.3c85.7 0 163.3-34.7 219.4-90.9 56.1-56.1 90.9-133.7 90.9-219.4 0-37-6.5-72.5-18.4-105.4v67.8zM112.1 473.8H78.8c-4.4 0-8.1 3.6-8.1 8.1v33.3c0 4.4 3.6 8.1 8.1 8.1h33.3c4.4 0 8.1-3.6 8.1-8.1v-33.3c-.1-4.5-3.7-8.1-8.1-8.1zM282 460.2v-24.3c0-3.2-2.6-5.9-5.9-5.9h-24.3c-3.2 0-5.9 2.6-5.9 5.9v24.3c0 3.2 2.6 5.9 5.9 5.9h24.3c3.3 0 5.9-2.7 5.9-5.9zM230 493.4h-65.4c-8.7 0-15.9 7.1-15.9 15.9v65.4c0 8.7 7.1 15.9 15.9 15.9H230c8.7 0 15.9-7.1 15.9-15.9v-65.4c-.1-8.7-7.2-15.9-15.9-15.9zM253.2 390v-48.6c0-6.5-5.3-11.8-11.8-11.8h-48.6c-6.5 0-11.8 5.3-11.8 11.8V390c0 6.5 5.3 11.8 11.8 11.8h48.6c6.5 0 11.8-5.3 11.8-11.8z" fill="#25bcbd"></path><linearGradient id="a23ca9a45-1be7-40b5-9436-d6ce29d47b8b" gradientUnits="userSpaceOnUse" x1="20.209" y1="314.098" x2="582.468" y2="314.098"><stop offset="0" stop-color="#25bcbd"></stop><stop offset="1" stop-color="#c2d72e"></stop></linearGradient><path d="M179.9 300.5c2.1.7 4.3 1.1 6.6 1.1h83.7c2.3 0 4.6-.4 6.6-1.1l37.4 37.4c-1.3 2.7-2 5.7-2 8.8v83.7c0 11.2 9.1 20.3 20.3 20.3h83.7c11.2 0 20.3-9.1 20.3-20.3v-83.7c0-3.2-.7-6.2-2-8.8l37.4-37.4c2.1.7 4.3 1.1 6.6 1.1h83.7c11.2 0 20.3-9.1 20.3-20.3v-83.7c0-11.2-9.1-20.3-20.3-20.3h-83.7c-11.2 0-20.3 9.1-20.3 20.3v83.7c0 2.8.6 5.5 1.6 7.9l-38.1 38.1c-1.8-.5-3.6-.8-5.6-.8h-83.7c-1.9 0-3.8.3-5.6.8l-38.1-38.1c1-2.4 1.6-5.1 1.6-7.9v-83.7c0-11.2-9.1-20.3-20.3-20.3h-83.7c-11.2 0-20.3 9.1-20.3 20.3v83.7c0 2.8.6 5.5 1.6 7.9l-38.1 38.1c-1.8-.5-3.6-.8-5.6-.8H40.5c-11.2 0-20.3 9.1-20.3 20.3v83.7c0 11.2 9.1 20.3 20.3 20.3h83.7c11.2 0 20.3-9.1 20.3-20.3v-83.7c0-3.2-.7-6.2-2-8.8l37.4-37.5z" fill="url(#a23ca9a45-1be7-40b5-9436-d6ce29d47b8b)"></path><path d="M189.8 434.5c-1.6 0-2.9 1.3-2.9 2.9v12.1c0 1.6 1.3 2.9 2.9 2.9H202c1.6 0 2.9-1.3 2.9-2.9v-12.1c0-1.6-1.3-2.9-2.9-2.9h-12.2z" fill="#25bcbd"></path></svg></svg> <!----></g></g> <g transform="translate(67,16.29138946533203)"><g data-gra="path-name" fill-rule="" class="tp-name iconsvg-namesvg"><g transform="scale(1)"><g><path d="M13.59 1.12L13.59 1.12Q12.31 1.09 11.17 1.09 10.02 1.09 9.02 1.09L9.02 1.09Q6.99 1.09 5.54 1.13 4.08 1.18 3.12 1.21L3.12 1.21Q2.02 1.27 1.25 1.32L1.25 1.32Q1.37 0.12 1.47-1.11 1.57-2.34 1.64-3.53 1.71-4.73 1.77-5.85 1.82-6.97 1.85-7.97L1.85-7.97Q1.93-10.29 1.94-12.45L1.94-12.45Q1.93-14.59 1.85-16.84L1.85-16.84Q1.82-17.8 1.77-18.86 1.71-19.92 1.64-21.03 1.57-22.13 1.47-23.25 1.37-24.36 1.25-25.42L1.25-25.42 6.51-25.68Q6.17-21.65 6.05-17.92 5.92-14.18 5.92-11.02L5.92-11.02Q5.92-7.99 5.98-5.83 6.05-3.67 6.1-2.55L6.1-2.55 6.17-2.55Q7.56-2.55 8.89-2.76 10.22-2.98 11.27-3.25L11.27-3.25Q12.5-3.55 13.59-3.94L13.59-3.94Q13.57-3.75 13.57-3.44L13.57-3.44Q13.56-3.19 13.56-2.79 13.56-2.39 13.56-1.82L13.56-1.82Q13.56-1.25 13.56-0.53 13.56 0.2 13.59 1.12ZM27.97 0.41L27.97 0.41Q26.52 0.37 25.28 0.37 24.04 0.36 22.94 0.36L22.94 0.36Q20.78 0.36 19.33 0.4 17.87 0.45 16.96 0.48L16.96 0.48Q15.89 0.54 15.27 0.59L15.27 0.59Q15.39-0.61 15.49-1.82 15.59-3.03 15.66-4.21 15.73-5.39 15.78-6.47 15.84-7.56 15.87-8.53L15.87-8.53Q15.95-10.77 15.96-12.82L15.96-12.82Q15.95-14.96 15.87-17.21L15.87-17.21Q15.84-18.17 15.78-19.24 15.73-20.3 15.66-21.4 15.59-22.51 15.49-23.62 15.39-24.74 15.27-25.79L15.27-25.79Q17.5-25.7 19.25-25.66 21.01-25.61 22.38-25.61L22.38-25.61Q23.74-25.61 24.72-25.64 25.7-25.67 26.33-25.7L26.33-25.7Q27.06-25.74 27.54-25.79L27.54-25.79Q27.54-25.81 27.54-25.47 27.54-25.13 27.56-24.58 27.57-24.02 27.62-23.33 27.66-22.63 27.75-21.92L27.75-21.92Q25.68-22.12 24.13-22.18 22.58-22.24 21.47-22.24L21.47-22.24Q21.01-22.24 20.66-22.24 20.32-22.24 20.01-22.21L20.01-22.21Q19.98-20.23 19.96-18.49 19.94-16.75 19.94-15.2L19.94-15.2Q21.19-15.23 22.17-15.29 23.15-15.36 23.85-15.45L23.85-15.45Q24.65-15.54 25.27-15.64L25.27-15.64Q25.26-15.52 25.26-15.36L25.26-15.36Q25.24-15.21 25.24-15.02 25.24-14.82 25.24-14.57L25.24-14.57Q25.24-14 25.27-13.21 25.31-12.41 25.42-11.5L25.42-11.5Q23.49-11.75 22.1-11.82 20.71-11.88 19.94-11.88L19.94-11.88Q19.94-10.02 19.96-8.57 19.98-7.12 20-6.01 20.03-4.9 20.06-4.12 20.08-3.34 20.12-2.82L20.12-2.82Q21.94-2.85 23.37-3 24.79-3.14 25.77-3.29 26.75-3.44 27.27-3.57 27.79-3.69 27.79-3.73L27.79-3.73Q27.77-3.64 27.77-3.53L27.77-3.53Q27.75-3.44 27.75-3.3 27.75-3.16 27.75-2.96L27.75-2.96Q27.75-2.46 27.79-1.62 27.82-0.78 27.97 0.41ZM40.68-26.04L45.43-26.18Q45.34-24.74 45.28-23.18 45.21-21.62 45.17-20.05 45.12-18.48 45.1-16.96 45.07-15.45 45.05-14.11 45.04-12.77 45.04-11.66 45.04-10.56 45.04-9.79L45.04-9.79Q45.04-8.79 45.04-7.58 45.04-6.37 45.05-5.08 45.07-3.8 45.1-2.51 45.12-1.21 45.18-0.07L45.18-0.07Q44.41-0.11 43.78-0.11 43.15-0.11 42.63-0.11L42.63-0.11Q41.7-0.11 41.09-0.09 40.49-0.07 40.13-0.04L40.13-0.04Q39.7 0 39.47 0.04L39.47 0.04Q39.42-0.34 39.25-1.13 39.08-1.93 38.82-3.01 38.56-4.1 38.22-5.42 37.88-6.74 37.5-8.17 37.12-9.6 36.71-11.07 36.3-12.54 35.89-13.94 35.49-15.34 35.11-16.6 34.73-17.85 34.41-18.85L34.41-18.85Q34.26-16.57 34.19-14.63 34.12-12.7 34.08-11.25L34.08-11.25Q34.03-9.58 34.03-8.19L34.03-8.19Q34.03-6.99 34.08-5.65L34.08-5.65Q34.12-4.51 34.22-3.05 34.32-1.59 34.51-0.07L34.51-0.07Q33.14-0.12 32.26-0.13 31.37-0.14 30.86-0.14L30.86-0.14 29.98-0.14Q30.07-3.34 30.12-5.56 30.18-7.79 30.21-9.3 30.23-10.81 30.24-11.72 30.25-12.63 30.25-13.19 30.25-13.75 30.24-14.09 30.23-14.43 30.23-14.79L30.23-14.79Q30.23-15.68 30.22-16.91 30.21-18.14 30.18-19.56 30.14-20.98 30.07-22.51 30-24.04 29.88-25.54L29.88-25.54Q31.69-25.54 32.87-25.58 34.05-25.61 34.74-25.65L34.74-25.65Q35.56-25.7 36.01-25.76L36.01-25.76Q36.1-25.18 36.38-23.97 36.65-22.76 37.04-21.16 37.42-19.57 37.9-17.71 38.38-15.86 38.89-13.97 39.4-12.09 39.92-10.32 40.43-8.54 40.9-7.12L40.9-7.12Q40.99-8.63 41.03-10.21 41.08-11.79 41.1-13.16 41.13-14.54 41.13-15.56 41.13-16.59 41.13-16.98L41.13-16.98Q41.11-18.6 41.06-20.23L41.06-20.23Q41.04-20.92 41-21.67 40.97-22.42 40.92-23.18 40.88-23.94 40.82-24.67 40.76-25.4 40.68-26.04L40.68-26.04ZM48.5-2.12L48.5-2.12Q48.5-3.5 48.43-4.87 48.37-6.24 48.3-7.62 48.23-9.01 48.17-10.41 48.1-11.81 48.1-13.25L48.1-13.25Q48.1-14.77 48.2-16.33 48.3-17.89 48.59-19.34 48.87-20.8 49.37-22.07 49.87-23.35 50.67-24.29 51.47-25.24 52.63-25.79 53.79-26.34 55.36-26.34L55.36-26.34Q56.86-26.34 57.97-25.87 59.07-25.4 59.85-24.58 60.62-23.76 61.11-22.65 61.61-21.55 61.88-20.26 62.16-18.98 62.27-17.59 62.37-16.2 62.37-14.82L62.37-14.82Q62.37-14.46 62.36-14.2 62.35-13.93 62.35-13.62 62.34-13.31 62.31-12.88 62.28-12.45 62.25-11.76 62.21-11.08 62.17-10.08 62.12-9.08 62.07-7.62 62.02-6.15 61.94-4.16 61.87-2.18 61.8 0.48L61.8 0.48 56.47 0.29Q56.77-1.75 57.01-3.79 57.25-5.83 57.41-7.6L57.41-7.6Q56.04-7.71 54.86-7.71L54.86-7.71Q54.26-7.71 53.72-7.69 53.19-7.67 52.78-7.63L52.78-7.63Q52.83-6.71 52.9-5.67 52.97-4.64 53.06-3.59 53.15-2.53 53.26-1.51 53.37-0.48 53.51 0.45L53.51 0.45 48.46 0.59Q48.5-0.07 48.5-0.76 48.5-1.44 48.5-2.12ZM52.56-11.4L52.56-11.4Q53.1-11.36 53.61-11.36 54.13-11.36 54.63-11.36L54.63-11.36Q56.54-11.36 57.7-11.47L57.7-11.47Q57.81-12.73 57.92-14.02 58.04-15.3 58.04-16.77L58.04-16.77Q58.04-19.85 57.4-21.47 56.77-23.08 55.54-23.08L55.54-23.08Q54.86-23.08 54.29-22.6 53.72-22.12 53.3-21.11 52.88-20.1 52.64-18.57 52.4-17.03 52.4-14.95L52.4-14.95Q52.4-14.22 52.45-13.39 52.49-12.56 52.56-11.4ZM80.81 0.29L80.81 0.29 80.32 0.29Q79.21 0.29 78.22 0.4 77.23 0.52 76.11 0.73L76.11 0.73Q76.34-3.19 76.46-6.64 76.59-10.1 76.59-13.34L76.59-13.34Q76.59-17.5 76.37-21.55L76.37-21.55 71.88-21.22Q71.86-21.83 71.84-22.34 71.83-22.85 71.79-23.32 71.75-23.79 71.7-24.28 71.65-24.77 71.58-25.38L71.58-25.38 73.73-25.38Q75.16-25.38 76.52-25.4 77.89-25.42 79.25-25.45 80.62-25.49 82.02-25.54 83.42-25.59 84.92-25.68L84.92-25.68Q84.83-24.77 84.8-24.14 84.77-23.51 84.77-22.83L84.77-22.83 84.77-21.88 80.39-21.78Q80.33-20.07 80.32-18.42 80.32-16.77 80.32-15.09L80.32-15.09Q80.32-11.2 80.44-7.38 80.56-3.57 80.81 0.29ZM102.52 0.48L97.33 0.32Q96.96-0.2 96.77-0.84 96.58-1.48 96.49-2.06 96.4-2.64 96.39-3.07 96.39-3.5 96.39-3.59L96.39-3.59Q96.39-4.16 96.34-4.95 96.3-5.74 96.14-6.59 95.98-7.44 95.68-8.27 95.39-9.1 94.88-9.76 94.37-10.42 93.63-10.82 92.89-11.22 91.85-11.22L91.85-11.22Q91.71-11.22 91.56-11.2 91.41-11.18 91.27-11.18L91.27-11.18 91.27-0.07 86.34 0.04Q86.45-0.59 86.53-1.44 86.61-2.28 86.66-3.24 86.72-4.19 86.75-5.23 86.79-6.26 86.81-7.26 86.83-8.26 86.83-9.19 86.84-10.13 86.84-10.88L86.84-10.88Q86.84-11.45 86.83-12.56 86.83-13.66 86.8-15.04 86.77-16.43 86.74-17.95 86.72-19.48 86.68-20.88 86.65-22.28 86.6-23.43 86.56-24.58 86.52-25.2L86.52-25.2Q87.5-25.4 88.63-25.5 89.75-25.59 90.71-25.65L90.71-25.65Q91.84-25.72 92.94-25.72L92.94-25.72Q94.73-25.79 96.3-25.43 97.87-25.06 99.05-24.19 100.24-23.33 100.94-21.96 101.65-20.6 101.68-18.71L101.68-18.71Q101.4-17.37 100.77-16.23L100.77-16.23Q100.51-15.75 100.14-15.24 99.77-14.73 99.28-14.29 98.79-13.84 98.17-13.48 97.54-13.11 96.78-12.9L96.78-12.9Q97.92-12.45 98.63-11.85 99.35-11.25 99.76-10.51 100.17-9.77 100.35-8.93 100.54-8.08 100.62-7.14 100.7-6.21 100.76-5.22 100.81-4.23 100.95-3.21L100.95-3.21Q101.09-2.44 101.31-1.75L101.31-1.75Q101.5-1.14 101.8-0.53 102.09 0.09 102.52 0.48L102.52 0.48ZM97.15-18.48L97.15-18.48Q97.13-19.62 96.65-20.53L96.65-20.53Q96.44-20.9 96.11-21.28 95.78-21.65 95.29-21.94 94.8-22.22 94.11-22.4 93.42-22.58 92.51-22.58L92.51-22.58Q91.82-22.58 90.98-22.38L90.98-22.38 91.05-14.32Q91.37-14.27 91.69-14.24 92.02-14.22 92.28-14.22L92.28-14.22Q93.14-14.22 93.8-14.39 94.46-14.57 94.96-14.88 95.46-15.18 95.81-15.55 96.17-15.93 96.42-16.34L96.42-16.34Q96.99-17.28 97.15-18.48ZM104.16-2.12L104.16-2.12Q104.16-3.5 104.1-4.87 104.04-6.24 103.97-7.62 103.89-9.01 103.83-10.41 103.77-11.81 103.77-13.25L103.77-13.25Q103.77-14.77 103.87-16.33 103.97-17.89 104.25-19.34 104.54-20.8 105.04-22.07 105.54-23.35 106.34-24.29 107.14-25.24 108.3-25.79 109.46-26.34 111.03-26.34L111.03-26.34Q112.53-26.34 113.63-25.87 114.74-25.4 115.51-24.58 116.29-23.76 116.78-22.65 117.27-21.55 117.55-20.26 117.82-18.98 117.93-17.59 118.04-16.2 118.04-14.82L118.04-14.82Q118.04-14.46 118.03-14.2 118.02-13.93 118.01-13.62 118-13.31 117.98-12.88 117.95-12.45 117.91-11.76 117.88-11.08 117.83-10.08 117.79-9.08 117.73-7.62 117.68-6.15 117.61-4.16 117.54-2.18 117.47 0.48L117.47 0.48 112.13 0.29Q112.44-1.75 112.68-3.79 112.92-5.83 113.08-7.6L113.08-7.6Q111.71-7.71 110.53-7.71L110.53-7.71Q109.92-7.71 109.39-7.69 108.85-7.67 108.44-7.63L108.44-7.63Q108.5-6.71 108.57-5.67 108.64-4.64 108.73-3.59 108.82-2.53 108.92-1.51 109.03-0.48 109.17 0.45L109.17 0.45 104.13 0.59Q104.16-0.07 104.16-0.76 104.16-1.44 104.16-2.12ZM108.23-11.4L108.23-11.4Q108.76-11.36 109.28-11.36 109.8-11.36 110.3-11.36L110.3-11.36Q112.21-11.36 113.37-11.47L113.37-11.47Q113.47-12.73 113.59-14.02 113.7-15.3 113.7-16.77L113.7-16.77Q113.7-19.85 113.07-21.47 112.44-23.08 111.21-23.08L111.21-23.08Q110.53-23.08 109.96-22.6 109.39-22.12 108.97-21.11 108.55-20.1 108.31-18.57 108.07-17.03 108.07-14.95L108.07-14.95Q108.07-14.22 108.11-13.39 108.16-12.56 108.23-11.4ZM135.87-12.24L135.87-12.24Q135.87-9.33 135.33-7.21 134.79-5.1 133.93-3.61 133.07-2.12 132-1.2 130.93-0.27 129.86 0.24 128.79 0.75 127.85 0.94 126.9 1.12 126.3 1.12L126.3 1.12Q126.15 1.12 125.66 1.11 125.17 1.09 124.46 1.03 123.75 0.96 122.84 0.84 121.94 0.71 120.96 0.48L120.96 0.48Q120.98-3.05 121.01-5.65 121.03-8.24 121.05-10.11 121.07-11.99 121.09-13.25 121.11-14.52 121.11-15.43 121.12-16.34 121.13-16.99 121.14-17.64 121.14-18.26L121.14-18.26Q121.14-19.24 121.12-20.29 121.11-21.33 121.05-22.31 121-23.29 120.91-24.15 120.82-25.01 120.68-25.61L120.68-25.61Q122.07-25.7 123.22-25.73 124.37-25.76 125.21-25.76L125.21-25.76Q127.31-25.76 128.92-25.25 130.52-24.74 131.71-23.84 132.9-22.94 133.69-21.68 134.48-20.42 134.97-18.92 135.46-17.43 135.67-15.72 135.87-14.02 135.87-12.24ZM131.24-12.79L131.24-12.79Q131.24-15.95 130.94-17.93 130.65-19.92 130-21.03 129.35-22.13 128.3-22.54 127.26-22.94 125.78-22.94L125.78-22.94 125.24-22.94 125.46-1.98Q125.81-1.84 126.13-1.79 126.44-1.75 126.74-1.75L126.74-1.75Q127.94-1.75 128.78-2.31 129.63-2.87 130.18-4.16 130.72-5.46 130.98-7.57 131.24-9.68 131.24-12.79ZM143.06 0.18L143.06 0.18 138.35 0.66Q138.39-0.54 138.42-1.83 138.44-3.12 138.46-4.41 138.48-5.69 138.5-6.93 138.51-8.17 138.51-9.27L138.51-9.27Q138.53-11.88 138.53-14.39L138.53-14.39Q138.51-16.64 138.48-18.75L138.48-18.75Q138.46-19.64 138.43-20.58 138.41-21.53 138.37-22.44 138.34-23.35 138.29-24.16 138.25-24.97 138.17-25.61L138.17-25.61 142.67-25.83Q142.63-24.72 142.61-23.55 142.58-22.38 142.56-21.23 142.54-20.08 142.54-19.01 142.53-17.94 142.53-17.02L142.53-17.02Q142.53-12.36 142.64-8.14 142.76-3.92 143.06 0.18ZM156.58-26.04L161.33-26.18Q161.24-24.74 161.17-23.18 161.11-21.62 161.07-20.05 161.02-18.48 161-16.96 160.97-15.45 160.95-14.11 160.93-12.77 160.93-11.66 160.93-10.56 160.93-9.79L160.93-9.79Q160.93-8.79 160.93-7.58 160.93-6.37 160.95-5.08 160.97-3.8 161-2.51 161.02-1.21 161.08-0.07L161.08-0.07Q160.31-0.11 159.68-0.11 159.04-0.11 158.53-0.11L158.53-0.11Q157.6-0.11 156.99-0.09 156.39-0.07 156.03-0.04L156.03-0.04Q155.6 0 155.37 0.04L155.37 0.04Q155.32-0.34 155.15-1.13 154.98-1.93 154.72-3.01 154.46-4.1 154.12-5.42 153.78-6.74 153.4-8.17 153.01-9.6 152.6-11.07 152.19-12.54 151.79-13.94 151.39-15.34 151.01-16.6 150.62-17.85 150.3-18.85L150.3-18.85Q150.16-16.57 150.09-14.63 150.02-12.7 149.98-11.25L149.98-11.25Q149.93-9.58 149.93-8.19L149.93-8.19Q149.93-6.99 149.98-5.65L149.98-5.65Q150.02-4.51 150.12-3.05 150.21-1.59 150.41-0.07L150.41-0.07Q149.04-0.12 148.15-0.13 147.27-0.14 146.75-0.14L146.75-0.14 145.88-0.14Q145.97-3.34 146.02-5.56 146.08-7.79 146.1-9.3 146.13-10.81 146.14-11.72 146.15-12.63 146.15-13.19 146.15-13.75 146.14-14.09 146.13-14.43 146.13-14.79L146.13-14.79Q146.13-15.68 146.12-16.91 146.11-18.14 146.08-19.56 146.04-20.98 145.97-22.51 145.9-24.04 145.77-25.54L145.77-25.54Q147.59-25.54 148.77-25.58 149.95-25.61 150.64-25.65L150.64-25.65Q151.46-25.7 151.91-25.76L151.91-25.76Q152-25.18 152.27-23.97 152.55-22.76 152.93-21.16 153.32-19.57 153.8-17.71 154.28-15.86 154.79-13.97 155.3-12.09 155.81-10.32 156.33-8.54 156.8-7.12L156.8-7.12Q156.88-8.63 156.93-10.21 156.97-11.79 157-13.16 157.03-14.54 157.03-15.56 157.03-16.59 157.03-16.98L157.03-16.98Q157.01-18.6 156.96-20.23L156.96-20.23Q156.94-20.92 156.9-21.67 156.87-22.42 156.82-23.18 156.78-23.94 156.72-24.67 156.65-25.4 156.58-26.04L156.58-26.04ZM179.04-5.78L179.04-5.78Q179.04-4.46 178.64-3.21 178.23-1.96 177.4-0.98 176.58 0 175.32 0.59 174.06 1.18 172.33 1.18L172.33 1.18Q170.58 1.18 169 0.29 167.41-0.59 166.2-2.35 165-4.12 164.28-6.77 163.56-9.42 163.56-12.97L163.56-12.97Q163.56-16.52 164.31-19.03 165.07-21.55 166.32-23.14 167.57-24.74 169.16-25.48 170.76-26.22 172.44-26.22L172.44-26.22Q174.11-26.22 175.28-25.73 176.45-25.24 177.18-24.49 177.91-23.74 178.24-22.84 178.57-21.94 178.57-21.12L178.57-21.12Q178.57-20.3 178.33-19.68 178.09-19.07 177.7-18.67 177.31-18.26 176.82-18.06 176.33-17.85 175.83-17.85L175.83-17.85Q175.34-17.85 174.87-17.98 174.4-18.1 174.04-18.42 173.69-18.73 173.46-19.24 173.24-19.74 173.24-20.49L173.24-20.49Q173.26-20.87 173.33-21.22L173.33-21.22Q173.4-21.53 173.55-21.89 173.7-22.26 174.01-22.58L174.01-22.58Q173.74-22.88 173.42-23.04 173.1-23.2 172.79-23.29L172.79-23.29Q172.46-23.38 172.1-23.42L172.1-23.42Q171.63-23.42 170.95-22.79 170.26-22.17 169.62-20.86 168.98-19.55 168.51-17.52 168.05-15.5 168.05-12.72L168.05-12.72Q168.05-9.92 168.51-7.8 168.98-5.69 169.67-4.26 170.37-2.84 171.16-2.11 171.96-1.39 172.62-1.39L172.62-1.39Q173.94-1.39 174.59-2.59 175.24-3.78 175.24-6.28L175.24-6.28Q175.24-6.85 175.18-7.47L175.18-7.47Q175.15-7.99 175.06-8.65 174.97-9.31 174.81-9.97L174.81-9.97Q174.19-9.88 173.26-9.74 172.33-9.6 171.12-9.35L171.12-9.35Q171.31-10.15 171.38-11 171.44-11.84 171.44-12.57L171.44-12.57Q171.44-12.93 171.43-13.23 171.42-13.54 171.4-13.75L171.4-13.75Q171.39-14 171.37-14.22L171.37-14.22Q171.9-14.11 172.62-14.04L172.62-14.04Q173.22-13.97 174.11-13.92 174.99-13.88 176.13-13.88L176.13-13.88Q176.74-13.88 177.4-13.89 178.07-13.89 178.82-13.95L178.82-13.95Q178.72-13.2 178.72-12.41L178.72-12.41Q178.72-11.74 178.77-10.99 178.82-10.24 178.88-9.42 178.93-8.6 178.98-7.7 179.04-6.8 179.04-5.78Z" transform="translate(-1.25, 26.34000015258789)"></path></g> <!----> <!----> <!----> <!----> <!----> <!----> <!----></g></g> <!----></g></g><defs v-gra="od"></defs></svg>